<svg xmlns="http://www.w3.org/2000/svg" xmlns:xlink="http://www.w3.org/1999/xlink" width="13" height="13" viewBox="0 0 13 13">
  <metadata><?xpacket begin="﻿" id="W5M0MpCehiHzreSzNTczkc9d"?>
<x:xmpmeta xmlns:x="adobe:ns:meta/" x:xmptk="Adobe XMP Core 5.6-c138 79.159824, 2016/09/14-01:09:01        ">
   <rdf:RDF xmlns:rdf="http://www.w3.org/1999/02/22-rdf-syntax-ns#">
      <rdf:Description rdf:about=""/>
   </rdf:RDF>
</x:xmpmeta>
                                                                                                    
                                                                                                    
                                                                                                    
                                                                                                    
                                                                                                    
                                                                                                    
                                                                                                    
                                                                                                    
                                                                                                    
                                                                                                    
                                                                                                    
                                                                                                    
                                                                                                    
                                                                                                    
                                                                                                    
                                                                                                    
                                                                                                    
                                                                                                    
                                                                                                    
                                                                                                    
                           
<?xpacket end="w"?></metadata>
<defs>
    <style>
      .cls-1 {
        fill: #fff;
        fill-rule: evenodd;
        filter: url(#filter);
      }
    </style>
    <filter id="filter" x="464" y="6121" width="13" height="13" filterUnits="userSpaceOnUse">
      <feFlood result="flood" flood-color="#6c6c6c"/>
      <feComposite result="composite" operator="in" in2="SourceGraphic"/>
      <feBlend result="blend" in2="SourceGraphic"/>
    </filter>
  </defs>
  <path id="calendar" class="cls-1" d="M464,6134v-11.92h2.437V6121h0.542v1.08h7.042V6121h0.541v1.08H477V6134H464Zm12.458-11.38h-1.9v0.55h-0.541v-0.55h-7.042v0.55h-0.542v-0.55h-1.9v2.17h11.916v-2.17Zm0,2.71H464.542v8.13h11.916v-8.13Zm-9.208,4.34h-1.083v-1.09h1.083v1.09Zm0,1.89h-1.083v-1.08h1.083v1.08Zm1.9-3.79h-1.084v-1.08h1.084v1.08Zm0,1.9h-1.084v-1.09h1.084v1.09Zm0,1.89h-1.084v-1.08h1.084v1.08Zm1.9-3.79h-1.084v-1.08h1.084v1.08Zm0,1.9h-1.084v-1.09h1.084v1.09Zm0,1.89h-1.084v-1.08h1.084v1.08Zm1.9-3.79h-1.083v-1.08h1.083v1.08Zm0,1.9h-1.083v-1.09h1.083v1.09Zm0,1.89h-1.083v-1.08h1.083v1.08Zm1.9-3.79H473.75v-1.08h1.083v1.08Zm0,1.9H473.75v-1.09h1.083v1.09Z" transform="translate(-464 -6121)"/>
</svg>
