<svg xmlns="http://www.w3.org/2000/svg" xmlns:xlink="http://www.w3.org/1999/xlink" width="15" height="13" viewBox="0 0 15 13">
  <metadata><?xpacket begin="﻿" id="W5M0MpCehiHzreSzNTczkc9d"?>
<x:xmpmeta xmlns:x="adobe:ns:meta/" x:xmptk="Adobe XMP Core 5.6-c138 79.159824, 2016/09/14-01:09:01        ">
   <rdf:RDF xmlns:rdf="http://www.w3.org/1999/02/22-rdf-syntax-ns#">
      <rdf:Description rdf:about=""/>
   </rdf:RDF>
</x:xmpmeta>
                                                                                                    
                                                                                                    
                                                                                                    
                                                                                                    
                                                                                                    
                                                                                                    
                                                                                                    
                                                                                                    
                                                                                                    
                                                                                                    
                                                                                                    
                                                                                                    
                                                                                                    
                                                                                                    
                                                                                                    
                                                                                                    
                                                                                                    
                                                                                                    
                                                                                                    
                                                                                                    
                           
<?xpacket end="w"?></metadata>
<defs>
    <style>
      .cls-1 {
        fill: #fff;
        fill-rule: evenodd;
        filter: url(#filter);
      }
    </style>
    <filter id="filter" x="325" y="6121" width="15" height="13" filterUnits="userSpaceOnUse">
      <feFlood result="flood" flood-color="#6c6c6c"/>
      <feComposite result="composite" operator="in" in2="SourceGraphic"/>
      <feBlend result="blend" in2="SourceGraphic"/>
    </filter>
  </defs>
  <path id="pencil" class="cls-1" d="M338.4,6133.96a1.959,1.959,0,0,1-.342.03,3.522,3.522,0,0,1-2.35-1.22,2.626,2.626,0,0,0-4.144-.02l-0.54-.44a3.726,3.726,0,0,1,2.441-1.25,3.683,3.683,0,0,1,2.737,1.22,2.587,2.587,0,0,0,2.068,1.01,1.732,1.732,0,0,0,1.1-.91l0.635,0.29A2.4,2.4,0,0,1,338.4,6133.96Zm-1.306-8.58-0.008-.01-8.251,8.13H325v-3.88l8.169-8.1-0.033-.03,0.495-.49,0.03,0.03,0.031-.03,0.525,0.49-0.046.04,2.915,2.87h0l0.494,0.48-0.007.01h0.007Zm-11.392,7.43h2.844l6.317-6.22-2.91-2.86-6.251,6.18v2.9Zm7.978-10.79-1.233,1.22,2.911,2.87,1.236-1.22Z" transform="translate(-325 -6121)"/>
</svg>
